<svg width="195" height="26" viewBox="0 0 195 26" fill="none" xmlns="http://www.w3.org/2000/svg">
<path d="M4.30009 8.74744C5.34006 5.82257 7.63971 4.4834 10.8433 4.4834C12.4315 4.4834 13.6912 4.75708 14.8149 5.1394C14.6496 6.06909 14.4027 8.09144 14.3483 9.18617C13.2267 8.72028 11.9942 8.47584 10.3244 8.47584C6.81946 8.503 4.65581 9.95081 4.65581 13.8618C4.65581 16.4043 4.65581 20.3947 4.76462 22.0347H0C0.054405 19.7658 0.0816105 16.4858 0.0816105 13.0136C0.0816105 9.48701 0.054405 6.83583 0 4.48549H4.21639C4.16198 5.68886 4.13478 7.21815 4.10758 8.72237L4.30009 8.74744Z" fill="white"/>
<path d="M30.584 11.4089C30.584 8.98965 29.4896 7.76538 25.1644 7.76538C20.8099 7.76538 19.5503 8.93324 19.6068 11.2418C19.0585 11.1875 18.3199 11.1875 17.5812 11.1875C16.7882 11.1875 16.0202 11.1875 15.4469 11.271C15.4197 6.7375 18.2676 4.48535 25.1937 4.48535C32.6116 4.48535 35.0494 7.15534 35.0494 11.1896C35.0494 13.1367 34.9406 14.666 34.9406 16.6967C34.9406 18.6438 35.0787 21.1738 35.3528 22.0367H31.6554C30.8079 22.0367 30.6154 21.4809 30.6154 20.451C30.6154 19.8388 30.6154 19.0888 30.6698 18.3095H30.4773C29.4373 20.7288 26.6166 22.0367 22.2642 22.0367C17.282 22.0367 14.817 20.6473 14.817 17.2252C14.817 13.8324 17.554 12.3303 23.6327 12.3303C26.535 12.3303 28.9728 12.4682 30.5861 12.7753V11.4089H30.584ZM30.5568 14.6367C28.6401 14.4132 26.5036 14.3296 24.2605 14.3296C20.6467 14.3296 19.1129 15.0817 19.1129 16.6382C19.1129 18.1675 20.3726 18.9467 23.8503 18.9467C28.1755 18.9467 30.5589 17.2775 30.5589 14.9689V14.6367H30.5568Z" fill="white"/>
<path d="M91.5761 8.74744C92.6161 5.82257 94.9157 4.4834 98.1193 4.4834C99.7075 4.4834 100.967 4.75708 102.091 5.1394C101.926 6.06909 101.679 8.09144 101.624 9.18617C100.503 8.72028 99.2702 8.47584 97.6004 8.47584C94.0954 8.503 91.9318 9.95081 91.9318 13.8618C91.9318 16.4043 91.9318 20.3947 92.0406 22.0347H87.276C87.3304 19.7658 87.3576 16.4858 87.3576 13.0136C87.3576 9.48701 87.3304 6.83583 87.276 4.48549H91.4924C91.438 5.68886 91.4108 7.21815 91.3836 8.72237L91.5761 8.74744Z" fill="white"/>
<path d="M117.86 11.4089C117.86 8.98965 116.766 7.76538 112.44 7.76538C108.086 7.76538 106.826 8.93324 106.883 11.2418C106.335 11.1875 105.596 11.1875 104.857 11.1875C104.064 11.1875 103.296 11.1875 102.723 11.271C102.696 6.7375 105.544 4.48535 112.47 4.48535C119.888 4.48535 122.325 7.15534 122.325 11.1896C122.325 13.1367 122.217 14.666 122.217 16.6967C122.217 18.6438 122.355 21.1738 122.629 22.0367H118.927C118.08 22.0367 117.887 21.4809 117.887 20.451C117.887 19.8388 117.887 19.0888 117.942 18.3095H117.749C116.709 20.7288 113.888 22.0367 109.536 22.0367C104.554 22.0367 102.089 20.6473 102.089 17.2252C102.089 13.8324 104.826 12.3303 110.905 12.3303C113.807 12.3303 116.245 12.4682 117.858 12.7753V11.4089H117.86ZM117.833 14.6367C115.916 14.4132 113.78 14.3296 111.537 14.3296C107.923 14.3296 106.389 15.0817 106.389 16.6382C106.389 18.1675 107.649 18.9467 111.126 18.9467C115.452 18.9467 117.835 17.2775 117.835 14.9689V14.6367H117.833Z" fill="white"/>
<path d="M65.851 4.4834C64.1791 8.60747 60.6218 18.8153 59.4166 22.0326C58.7595 22.0034 57.8828 22.0034 56.87 22.0034C55.6396 22.0034 54.5431 22.0034 54.0765 22.0326C53.4466 20.1607 52.1598 16.0951 51.0654 12.439C50.6281 11.0351 50.243 9.74817 49.9438 8.69521H49.835C49.5337 9.77742 49.1487 11.1229 48.6569 12.4975C47.5333 16.0074 46.192 19.9852 45.4805 22.0326C44.9072 22.0326 43.8107 21.9741 42.9067 21.9741C41.7559 21.9741 41.0444 22.0034 40.6071 22.0326C39.2658 18.435 36.0622 8.51972 34.2271 4.4834H39.2386C39.5671 5.79959 41.2913 11.1229 42.3857 14.5742C42.8774 16.0366 43.206 17.1188 43.4529 17.9671H43.5345C43.8358 17.0896 44.1915 15.9196 44.6854 14.4572C45.8069 11.0059 47.2863 6.38456 47.7237 4.4834C48.3807 4.51265 49.7785 4.51264 50.5716 4.51264C51.3102 4.51264 52.2686 4.51265 52.9256 4.4834C53.3629 6.29682 54.7607 11.0059 55.9367 14.5742C56.485 16.0366 56.8407 17.1773 57.1148 18.0256H57.2236C57.4705 17.1773 57.7718 16.0659 58.2657 14.6035C59.3329 11.1229 60.9483 6.17982 61.3605 4.4834H65.851Z" fill="white"/>
<path d="M85.9724 4.48354C85.918 6.06923 85.8908 8.3381 85.8908 10.9078C85.8908 13.2038 85.9452 15.4727 85.9452 17.3864C85.9452 22.7431 83.5074 25.5865 75.5141 25.5865C71.3249 25.5865 67.4643 24.9869 65.083 23.9465C65.4387 23.0168 65.8216 21.3224 65.987 20.3384C68.5879 21.5961 71.9568 22.1686 75.104 22.1686C79.2115 22.1686 81.5928 21.2117 81.6472 18.5062C81.6744 17.6308 81.7016 16.7283 81.7853 15.6628L81.62 15.6357C80.4691 17.4658 77.9791 18.6692 74.0619 18.6692C67.684 18.6692 65.0537 16.346 65.0809 11.6975C65.1081 6.83179 68.1736 4.48145 73.7062 4.48145C77.6484 4.48145 80.0569 5.41114 81.4819 6.91535L81.5907 6.8882L81.5363 5.93135C81.5363 5.4947 81.5363 4.86586 81.5091 4.48354H85.9724ZM81.62 9.07767C79.9774 7.95786 77.5396 7.43765 75.0496 7.43765C71.0257 7.43765 69.4919 8.77683 69.4919 11.756C69.4919 14.5158 71.2998 15.8028 75.0224 15.8028C78.9918 15.8028 81.6221 14.3278 81.6221 11.6202V9.07767H81.62Z" fill="white"/>
<path d="M128.609 8.26261C129.869 5.89346 132.635 4.48535 136.741 4.48535C142.627 4.48535 145.586 7.64212 145.586 13.2537C145.586 18.8653 142.217 22.1077 136.659 22.1077C132.635 22.1077 129.98 20.7831 128.636 19.2037L128.444 19.2601C128.498 20.2191 128.498 21.0923 128.498 22.1077C128.498 23.3758 128.526 24.5896 128.526 25.9999H123.928C124.01 22.2205 124.01 16.6653 124.01 12.3804C124.01 9.02516 123.983 6.31757 123.956 4.48535H128.528C128.5 5.07659 128.5 5.95196 128.5 6.5432C128.5 7.02372 128.473 7.55855 128.446 8.20829L128.609 8.26261ZM128.419 17.0874C130.089 18.1299 132.361 18.6668 135.1 18.6668C139.262 18.6668 141.206 16.8617 141.206 13.2537C141.206 9.64566 139.181 7.92416 135.347 7.92416C131.514 7.92416 128.421 9.53075 128.421 13.0552V17.0874H128.419Z" fill="white"/>
<path d="M162.74 22.0347C162.794 19.8473 162.822 16.0199 162.822 12.439C162.822 9.24049 161.344 7.9828 157.484 7.9828C153.87 7.9828 150.995 9.54134 150.995 13.2037C150.995 17.8772 151.022 20.5576 151.049 22.0326H146.396C146.477 19.6551 146.477 16.6738 146.477 12.7106C146.477 8.22724 146.45 3.4994 146.396 0H151.106C151.051 1.88654 151.051 3.3636 151.024 5.05793C151.024 6.12342 150.997 7.08027 150.97 8.25648L151.108 8.28365C152.395 5.6053 155.161 4.37477 159.375 4.37477C164.414 4.37477 167.371 6.47858 167.371 11.2357C167.371 13.3395 167.316 14.4885 167.316 15.9092C167.316 17.7686 167.316 20.3383 167.398 22.0326H162.74V22.0347Z" fill="white"/>
<path d="M189.392 4.48354C189.338 6.4432 189.338 8.40077 189.338 11.3236C189.338 14.0771 189.392 16.206 189.392 18.1364C189.392 23.2737 186.956 25.998 179.043 25.998C171.734 25.998 169.076 24.2933 169.076 20.4909C169.076 20.236 169.076 19.9812 169.103 19.6949C169.679 19.7514 170.363 19.7806 171.294 19.7806C172.087 19.7806 172.801 19.7514 173.401 19.6949C173.374 19.837 173.374 20.0062 173.374 20.1483C173.374 22.0495 175.046 22.6741 178.932 22.6741C182.792 22.6741 185.065 21.6233 185.119 18.6441C185.146 17.5097 185.146 16.5716 185.228 15.3787L185.119 15.3223C183.887 17.3947 181.422 18.5877 177.536 18.5877C171.731 18.5877 168.965 16.6865 168.965 12.5144C168.965 10.8117 169.02 9.84649 169.02 8.5679C169.02 7.12009 169.02 5.75794 168.938 4.48145H173.483C173.428 6.29695 173.401 8.48434 173.401 11.7769C173.401 14.3027 175.128 15.4664 178.905 15.4664C182.299 15.4664 185.038 14.0479 185.038 11.1522V4.48145H189.392V4.48354Z" fill="white"/>
<path d="M193.573 20.1104C193.705 19.985 193.772 19.8221 193.772 19.6173C193.772 19.4126 193.707 19.2496 193.575 19.1243C193.443 19.001 193.255 18.9404 193.008 18.9404H192.073V21.0213H192.445V20.2942H193.029L193.336 21.0171H193.761L193.393 20.2211C193.462 20.1981 193.523 20.1584 193.573 20.1104ZM193.297 19.8827C193.228 19.9453 193.136 19.9767 193.018 19.9767H192.443V19.2622H193.018C193.136 19.2622 193.228 19.2914 193.297 19.3541C193.366 19.4147 193.401 19.5045 193.401 19.6194C193.403 19.7322 193.368 19.82 193.297 19.8827Z" fill="white"/>
<path d="M192.922 22.0573C191.776 22.0573 190.844 21.1276 190.844 19.9828C190.844 18.84 191.776 17.9082 192.922 17.9082C194.067 17.9082 195 18.8379 195 19.9828C195 21.1256 194.069 22.0573 192.922 22.0573ZM192.922 18.184C191.93 18.184 191.123 18.9904 191.123 19.9807C191.123 20.971 191.93 21.7774 192.922 21.7774C193.914 21.7774 194.722 20.971 194.722 19.9807C194.722 18.9904 193.916 18.184 192.922 18.184Z" fill="white"/>
</svg>
